<svg width="300" height="200" viewBox="0 0 300 200" fill="none" xmlns="http://www.w3.org/2000/svg">
<g clip-path="url(#clip0_105_5)">
<rect width="300" height="200" fill="white"/>
<path d="M381 0H-19V200H381V0Z" fill="#00732F"/>
<path d="M36 108.721C36 105.791 36.4048 102.535 37.2145 98.9535C38.0242 95.3721 39.3197 91.4244 41.1009 87.1105L49.8454 90.5291C48.5499 93.9477 47.5783 97.0814 46.9306 99.9302C46.2828 102.779 45.959 105.424 45.959 107.866C45.959 112.424 47.2544 116.087 49.8454 118.855C52.5173 121.703 55.9989 123.779 60.2902 125.081C64.6624 126.384 69.4395 127.035 74.6214 127.035C80.8559 127.035 86.5236 126.302 91.6245 124.837C96.8064 123.453 100.936 121.541 104.012 119.099C107.089 116.657 108.628 113.971 108.628 111.041C108.628 108.924 107.008 107.093 103.77 105.547C100.531 104 95.9967 102.413 90.1671 100.785L92.4747 90.6512C100.814 93.9884 107.332 96.2674 112.028 97.4884C116.805 98.6279 120.449 99.1977 122.959 99.1977C124.659 99.1977 125.874 99.686 126.602 100.663C127.412 101.558 127.817 102.657 127.817 103.959C127.817 105.262 127.25 106.483 126.117 107.622C124.983 108.68 123.526 109.209 121.744 109.209H117.251C117.332 109.942 117.413 110.512 117.494 110.919C117.655 111.407 117.736 112.017 117.736 112.75C117.736 116.738 115.915 120.564 112.271 124.227C108.628 127.971 103.365 131.023 96.4825 133.384C89.6813 135.744 81.5036 136.924 71.9495 136.924C65.4721 136.924 59.521 135.907 54.0962 133.872C48.6714 131.837 44.2991 128.703 40.9795 124.471C37.6598 120.32 36 115.07 36 108.721ZM80.6939 160C78.9936 160 77.5362 159.39 76.3217 158.169C75.1881 157.029 74.6214 155.645 74.6214 154.017C74.6214 152.39 75.1881 150.965 76.3217 149.744C77.5362 148.523 78.9936 147.913 80.6939 147.913C82.3133 147.913 83.6897 148.523 84.8233 149.744C86.0378 150.965 86.645 152.39 86.645 154.017C86.645 155.645 86.0378 157.029 84.8233 158.169C83.6897 159.39 82.3133 160 80.6939 160ZM64.0552 160C62.3548 160 60.8974 159.39 59.6829 158.169C58.5494 157.029 57.9826 155.645 57.9826 154.017C57.9826 152.39 58.5494 150.965 59.6829 149.744C60.8974 148.523 62.3548 147.913 64.0552 147.913C65.6745 147.913 67.0509 148.523 68.1845 149.744C69.399 150.965 70.0062 152.39 70.0062 154.017C70.0062 155.645 69.399 157.029 68.1845 158.169C67.0509 159.39 65.6745 160 64.0552 160Z" fill="white"/>
<path d="M121.784 109.209L122.999 99.1977C126.885 99.1977 130.002 98.9535 132.35 98.4651C134.779 97.9767 136.52 97 137.573 95.5349C138.625 93.9884 139.152 91.7093 139.152 88.6977C139.152 85.686 138.423 81.8198 136.966 77.0988C135.589 72.3779 134.01 67.6977 132.229 63.0581L142.066 59.3953C143.119 62.0814 144.091 65.093 144.981 68.4302C145.953 71.686 146.763 74.9419 147.41 78.1977C148.058 81.4535 148.382 84.3023 148.382 86.7442C148.382 94.9651 146.196 100.785 141.824 104.203C137.532 107.541 130.853 109.209 121.784 109.209ZM134.779 131.919C133.079 131.919 131.622 131.308 130.407 130.087C129.274 128.948 128.707 127.564 128.707 125.936C128.707 124.308 129.274 122.884 130.407 121.663C131.622 120.442 133.079 119.831 134.779 119.831C136.399 119.831 137.775 120.442 138.909 121.663C140.123 122.884 140.731 124.308 140.731 125.936C140.731 127.564 140.123 128.948 138.909 130.087C137.775 131.308 136.399 131.919 134.779 131.919Z" fill="white"/>
<path d="M154.886 136.924L151.364 127.645C159.218 125.041 165.331 121.948 169.703 118.366C174.156 114.785 177.274 111.041 179.055 107.134C180.917 103.145 181.848 99.2791 181.848 95.5349C181.848 91.5465 180.958 87.5174 179.176 83.4477C177.476 79.2965 175.573 75.3895 173.468 71.7267L182.334 67.2093C184.601 71.5233 186.504 75.6744 188.042 79.6628C189.662 83.6512 190.917 87.1512 191.807 90.1628C192.941 93.6628 194.398 96.0639 196.179 97.3663C198.042 98.5872 200.552 99.1977 203.709 99.1977C205.41 99.1977 206.624 99.686 207.353 100.663C208.163 101.558 208.567 102.657 208.567 103.959C208.567 105.262 208.001 106.483 206.867 107.622C205.734 108.68 204.276 109.209 202.495 109.209C199.418 109.209 196.827 108.721 194.722 107.744C192.698 106.767 191.038 105.465 189.743 103.837C188.933 108.395 187.233 112.547 184.642 116.291C182.051 120.035 179.014 123.291 175.533 126.058C172.051 128.907 168.489 131.227 164.845 133.017C161.202 134.808 157.882 136.11 154.886 136.924Z" fill="white"/>
<path d="M202.554 109.209L203.768 99.1977C208.869 99.1977 212.796 99.157 215.549 99.0756C218.383 98.9942 220.447 98.9128 221.743 98.8314C223.038 98.6686 223.929 98.5872 224.415 98.5872C222.957 97.7732 221.257 96.5116 219.314 94.8023C217.371 93.0116 215.67 90.7733 214.213 88.0872C212.756 85.3198 212.027 82.064 212.027 78.3198C212.027 73.7616 213.079 69.7326 215.185 66.2326C217.371 62.6512 220.326 59.8837 224.051 57.9302C227.856 55.9767 232.188 55 237.046 55C240.932 55 244.94 55.6512 249.069 56.9535L247.005 66.3546C243.604 65.4593 240.284 65.0116 237.046 65.0116C232.593 65.0116 228.949 66.2326 226.115 68.6744C223.362 71.0349 221.986 74.25 221.986 78.3198C221.986 81.0058 222.674 83.407 224.051 85.5233C225.427 87.5581 227.127 89.3081 229.151 90.7733C231.257 92.157 233.402 93.2151 235.588 93.9477C237.855 94.6802 239.88 95.0058 241.661 94.9244C242.956 94.5174 244.13 94.1512 245.183 93.8256C246.317 93.4186 247.693 92.8895 249.312 92.2384C251.013 91.5872 253.442 90.5291 256.599 89.064L260 97.9767C254.575 100.174 249.029 102.128 243.361 103.837C237.774 105.547 231.661 106.89 225.022 107.866C218.464 108.762 210.974 109.209 202.554 109.209Z" fill="white"/>
</g>
<defs>
<clipPath id="clip0_105_5">
<rect width="300" height="200" fill="white"/>
</clipPath>
</defs>
</svg>
