<svg width="300" height="200" viewBox="0 0 300 200" fill="none" xmlns="http://www.w3.org/2000/svg">
<g clip-path="url(#clip0_101_2)">
<rect width="300" height="200" fill="white"/>
<path fill-rule="evenodd" clip-rule="evenodd" d="M-64.8038 0.196167H334.381V199.789H-64.8038V0.196167Z" fill="#00AFCA"/>
<path fill-rule="evenodd" clip-rule="evenodd" d="M177.698 84.0224C177.698 88.7448 176.46 93.3766 174.107 97.4503C171.753 101.539 168.358 104.919 164.285 107.287C160.196 109.641 155.564 110.878 150.857 110.878C146.135 110.878 141.503 109.641 137.429 107.287C133.34 104.919 129.946 101.539 127.592 97.4503C125.238 93.3766 124.001 88.7448 124.001 84.0224C124.001 79.3151 125.238 74.6832 127.592 70.5945C129.946 66.5209 133.34 63.1262 137.429 60.7725C141.503 58.4189 146.135 57.1666 150.857 57.1666C155.564 57.1666 160.196 58.4189 164.285 60.7725C168.358 63.1262 171.753 66.5209 174.107 70.5945C176.46 74.6832 177.698 79.3151 177.698 84.0224Z" fill="#FEC50C"/>
<path fill-rule="evenodd" clip-rule="evenodd" d="M150.857 53.5155C152.441 53.4853 153.045 52.4895 153.045 51.2976C153.045 49.6983 150.857 42.0942 150.857 42.0942C150.857 42.0942 148.654 49.6983 148.654 51.2976C148.654 52.4895 149.258 53.5155 150.857 53.5155Z" fill="#FEC50C"/>
<path fill-rule="evenodd" clip-rule="evenodd" d="M181.364 84.0223C181.394 85.6216 182.39 86.2251 183.582 86.2251C185.181 86.2251 192.785 84.0223 192.785 84.0223C192.785 84.0223 185.181 81.8346 183.582 81.8346C182.39 81.8346 181.364 82.423 181.364 84.0223Z" fill="#FEC50C"/>
<path fill-rule="evenodd" clip-rule="evenodd" d="M150.857 114.544C149.258 114.56 148.654 115.555 148.654 116.762C148.654 118.362 150.857 125.966 150.857 125.966C150.857 125.966 153.045 118.362 153.045 116.762C153.045 115.555 152.441 114.544 150.857 114.544Z" fill="#FEC50C"/>
<path fill-rule="evenodd" clip-rule="evenodd" d="M120.335 84.0223C120.32 82.423 119.309 81.8346 118.117 81.8346C116.518 81.8346 108.914 84.0223 108.914 84.0223C108.914 84.0223 116.518 86.2251 118.117 86.2251C119.309 86.2251 120.335 85.6216 120.335 84.0223Z" fill="#FEC50C"/>
<path fill-rule="evenodd" clip-rule="evenodd" d="M162.535 55.8388C164.013 56.4273 164.949 55.7332 165.401 54.6318C166.02 53.1533 166.895 45.2776 166.895 45.2776C166.895 45.2776 161.961 51.4635 161.343 52.942C160.89 54.0585 161.056 55.2203 162.535 55.8388Z" fill="#FEC50C"/>
<path fill-rule="evenodd" clip-rule="evenodd" d="M179.04 95.7001C178.452 97.1938 179.146 98.1292 180.247 98.5818C181.726 99.1853 189.587 100.076 189.587 100.076C189.587 100.076 183.401 95.1419 181.937 94.5233C180.821 94.0707 179.659 94.2216 179.04 95.7001Z" fill="#FEC50C"/>
<path fill-rule="evenodd" clip-rule="evenodd" d="M139.164 112.221C137.685 111.632 136.75 112.326 136.297 113.428C135.679 114.906 134.804 122.767 134.804 122.767C134.804 122.767 139.737 116.581 140.356 115.103C140.809 114.001 140.643 112.824 139.164 112.221Z" fill="#FEC50C"/>
<path fill-rule="evenodd" clip-rule="evenodd" d="M122.658 72.3447C123.247 70.8661 122.553 69.9307 121.451 69.478C119.973 68.8595 112.112 67.9844 112.112 67.9844C112.112 67.9844 118.298 72.918 119.762 73.5215C120.878 73.9892 122.04 73.8232 122.658 72.3447Z" fill="#FEC50C"/>
<path fill-rule="evenodd" clip-rule="evenodd" d="M172.432 62.4472C173.579 63.5637 174.695 63.277 175.555 62.4321C176.672 61.3005 180.504 54.3754 180.504 54.3754C180.504 54.3754 173.579 58.1925 172.447 59.3241C171.602 60.169 171.301 61.3156 172.432 62.4472Z" fill="#FEC50C"/>
<path fill-rule="evenodd" clip-rule="evenodd" d="M172.432 105.598C171.316 106.744 171.602 107.876 172.447 108.721C173.579 109.852 180.504 113.669 180.504 113.669C180.504 113.669 176.672 106.744 175.555 105.613C174.695 104.768 173.564 104.481 172.432 105.598Z" fill="#FEC50C"/>
<path fill-rule="evenodd" clip-rule="evenodd" d="M129.267 105.598C128.135 104.496 127.004 104.768 126.159 105.613C125.027 106.744 121.195 113.669 121.195 113.669C121.195 113.669 128.135 109.852 129.252 108.721C130.097 107.876 130.398 106.729 129.267 105.598Z" fill="#FEC50C"/>
<path fill-rule="evenodd" clip-rule="evenodd" d="M129.267 62.4472C130.383 61.3005 130.097 60.169 129.252 59.3241C128.135 58.1925 121.195 54.3754 121.195 54.3754C121.195 54.3754 125.027 61.3005 126.159 62.4321C127.004 63.277 128.135 63.5787 129.267 62.4472Z" fill="#FEC50C"/>
<path fill-rule="evenodd" clip-rule="evenodd" d="M179.04 72.3447C179.674 73.8082 180.821 73.9892 181.937 73.5215C183.401 72.918 189.587 67.9844 189.587 67.9844C189.587 67.9844 181.726 68.8595 180.247 69.478C179.146 69.9307 178.437 70.8661 179.04 72.3447Z" fill="#FEC50C"/>
<path fill-rule="evenodd" clip-rule="evenodd" d="M162.535 112.221C161.056 112.855 160.89 114.001 161.343 115.103C161.961 116.581 166.895 122.767 166.895 122.767C166.895 122.767 166.02 114.907 165.401 113.428C164.949 112.327 163.998 111.602 162.535 112.221Z" fill="#FEC50C"/>
<path fill-rule="evenodd" clip-rule="evenodd" d="M122.658 95.7C122.025 94.2365 120.878 94.0705 119.762 94.5232C118.298 95.1418 112.112 100.075 112.112 100.075C112.112 100.075 119.973 99.1852 121.451 98.5817C122.553 98.1291 123.262 97.1786 122.658 95.7Z" fill="#FEC50C"/>
<path fill-rule="evenodd" clip-rule="evenodd" d="M139.164 55.8388C140.643 55.2052 140.809 54.0585 140.356 52.942C139.737 51.4635 134.804 45.2776 134.804 45.2776C134.804 45.2776 135.679 53.1533 136.297 54.6318C136.75 55.7332 137.701 56.4423 139.164 55.8388Z" fill="#FEC50C"/>
<path fill-rule="evenodd" clip-rule="evenodd" d="M156.801 54.0889C158.371 54.3906 159.155 53.5306 159.396 52.3538C159.698 50.7847 159.034 42.8939 159.034 42.8939C159.034 42.8939 155.398 49.9247 155.081 51.4938C154.855 52.6706 155.232 53.7871 156.801 54.0889Z" fill="#FEC50C"/>
<path fill-rule="evenodd" clip-rule="evenodd" d="M180.776 89.9819C180.489 91.551 181.349 92.3355 182.526 92.5618C184.095 92.8787 191.986 92.1997 191.986 92.1997C191.986 92.1997 184.955 88.5637 183.386 88.2619C182.209 88.0205 181.092 88.4128 180.776 89.9819Z" fill="#FEC50C"/>
<path fill-rule="evenodd" clip-rule="evenodd" d="M144.897 113.956C143.328 113.669 142.544 114.529 142.317 115.706C142.001 117.26 142.665 125.151 142.665 125.151C142.665 125.151 146.301 118.12 146.617 116.551C146.844 115.389 146.467 114.273 144.897 113.956Z" fill="#FEC50C"/>
<path fill-rule="evenodd" clip-rule="evenodd" d="M120.923 78.0779C121.21 76.5088 120.35 75.7242 119.173 75.4828C117.604 75.1811 109.729 75.8449 109.729 75.8449C109.729 75.8449 116.759 79.481 118.313 79.7978C119.49 80.0242 120.607 79.6319 120.923 78.0779Z" fill="#FEC50C"/>
<path fill-rule="evenodd" clip-rule="evenodd" d="M167.8 58.6451C169.143 59.5201 170.199 59.0223 170.863 58.0265C171.753 56.6988 174.152 49.155 174.152 49.155C174.152 49.155 168.102 54.2697 167.212 55.5974C166.548 56.5932 166.473 57.77 167.8 58.6451Z" fill="#FEC50C"/>
<path fill-rule="evenodd" clip-rule="evenodd" d="M176.219 100.981C175.359 102.323 175.857 103.364 176.853 104.043C178.18 104.918 185.724 107.317 185.724 107.317C185.724 107.317 180.609 101.267 179.282 100.392C178.286 99.7133 177.109 99.6529 176.219 100.981Z" fill="#FEC50C"/>
<path fill-rule="evenodd" clip-rule="evenodd" d="M133.899 109.399C132.556 108.524 131.5 109.022 130.836 110.018C129.946 111.346 127.547 118.89 127.547 118.89C127.547 118.89 133.597 113.79 134.487 112.462C135.151 111.466 135.226 110.29 133.899 109.399Z" fill="#FEC50C"/>
<path fill-rule="evenodd" clip-rule="evenodd" d="M125.48 67.064C126.34 65.7363 125.842 64.6802 124.861 64.0164C123.533 63.1262 115.99 60.7273 115.99 60.7273C115.99 60.7273 121.089 66.7774 122.417 67.6675C123.413 68.3314 124.59 68.3917 125.48 67.064Z" fill="#FEC50C"/>
<path fill-rule="evenodd" clip-rule="evenodd" d="M176.219 67.064C177.124 68.3917 178.286 68.3314 179.282 67.6675C180.61 66.7774 185.724 60.7273 185.724 60.7273C185.724 60.7273 178.18 63.1262 176.853 64.0164C175.857 64.6802 175.344 65.7514 176.219 67.064Z" fill="#FEC50C"/>
<path fill-rule="evenodd" clip-rule="evenodd" d="M167.8 109.399C166.488 110.305 166.548 111.466 167.212 112.462C168.102 113.79 174.152 118.889 174.152 118.889C174.152 118.889 171.753 111.346 170.863 110.018C170.199 109.022 169.128 108.509 167.8 109.399Z" fill="#FEC50C"/>
<path fill-rule="evenodd" clip-rule="evenodd" d="M125.48 100.981C124.575 99.668 123.413 99.7132 122.417 100.392C121.089 101.267 115.99 107.317 115.99 107.317C115.99 107.317 123.533 104.918 124.861 104.043C125.842 103.364 126.37 102.308 125.48 100.981Z" fill="#FEC50C"/>
<path fill-rule="evenodd" clip-rule="evenodd" d="M133.899 58.6451C135.211 57.7549 135.151 56.5932 134.487 55.5974C133.597 54.2697 127.547 49.155 127.547 49.155C127.547 49.155 129.946 56.6988 130.836 58.0265C131.5 59.0223 132.571 59.5352 133.899 58.6451Z" fill="#FEC50C"/>
<path fill-rule="evenodd" clip-rule="evenodd" d="M180.775 78.0779C181.107 79.6319 182.209 80.0242 183.386 79.7978C184.955 79.481 191.985 75.8449 191.985 75.8449C191.985 75.8449 184.095 75.1811 182.526 75.4828C181.349 75.7242 180.474 76.5088 180.775 78.0779Z" fill="#FEC50C"/>
<path fill-rule="evenodd" clip-rule="evenodd" d="M156.801 113.956C155.247 114.288 154.855 115.389 155.081 116.551C155.398 118.12 159.034 125.151 159.034 125.151C159.034 125.151 159.698 117.26 159.396 115.706C159.155 114.529 158.371 113.639 156.801 113.956Z" fill="#FEC50C"/>
<path fill-rule="evenodd" clip-rule="evenodd" d="M120.923 89.9819C120.592 88.4128 119.49 88.0205 118.313 88.2619C116.759 88.5637 109.729 92.1997 109.729 92.1997C109.729 92.1997 117.604 92.8787 119.173 92.5618C120.35 92.3355 121.225 91.551 120.923 89.9819Z" fill="#FEC50C"/>
<path fill-rule="evenodd" clip-rule="evenodd" d="M144.897 54.0889C146.451 53.7569 146.844 52.6706 146.617 51.4938C146.301 49.9247 142.665 42.8939 142.665 42.8939C142.665 42.8939 142.001 50.7847 142.317 52.3538C142.544 53.5306 143.328 54.4057 144.897 54.0889Z" fill="#FEC50C"/>
<path fill-rule="evenodd" clip-rule="evenodd" d="M143.962 142.547C143.011 142.683 142.121 142.999 141.186 143.15L140.824 143.211L140.19 143.271C140.235 143.452 140.25 143.618 140.25 143.799C140.25 143.98 140.235 144.146 140.19 144.297C140.145 144.433 140.024 144.614 139.919 144.719C139.798 144.855 139.647 144.991 139.481 145.066C139.33 145.142 139.149 145.172 138.968 145.187C138.787 145.202 138.606 145.187 138.425 145.127C138.244 145.066 138.078 144.946 137.927 144.825C137.746 144.87 137.55 144.9 137.369 144.915C137.188 144.946 137.007 144.946 136.841 144.915C136.66 144.87 136.463 144.81 136.282 144.734C136.162 144.674 136.026 144.614 135.905 144.553C135.86 144.523 135.815 144.493 135.769 144.463C135.091 144.855 134.336 145.232 133.914 145.941C133.687 146.258 133.642 146.62 133.582 146.998C133.552 147.465 133.672 147.963 133.868 148.386C133.944 148.521 134.004 147.933 134.231 147.858C134.608 147.541 135.075 147.314 135.558 147.194C135.966 146.982 135.92 147.194 135.739 147.526C135.709 147.692 135.483 148.325 135.785 147.993C137.142 147.405 138.636 147.284 140.084 147.163C142.212 146.952 144.324 146.907 146.451 146.877C148.443 146.907 150.45 146.922 152.441 146.998C153.392 147.028 154.342 147.239 155.293 147.088C155.519 147.028 155.866 147.013 156.002 146.877C155.579 146.635 155.066 146.62 154.599 146.56H150.797C149.74 146.454 148.639 146.439 147.628 146.047C147.372 145.941 147.13 145.685 146.874 145.956C146.497 146.092 146.089 146.183 145.682 146.213C144.988 146.258 144.294 146.122 143.645 145.851C144.113 145.217 144.671 144.644 145.184 144.04C144.762 143.98 144.369 143.89 143.962 143.799C144.686 143.301 145.35 142.728 146.059 142.2C145.335 142.245 144.641 142.335 143.962 142.547Z" fill="#FEC50C"/>
<path fill-rule="evenodd" clip-rule="evenodd" d="M177.14 149.095C175.691 149.955 174.59 148.416 173.383 147.963C172.523 148.431 172.432 150 171.633 150.739C170.667 151.841 169.49 150.438 169.581 149.351C168.419 150.317 167.831 152.535 165.975 152.233C165.085 151.509 164.421 150 163.757 151.72C163.199 152.565 161.735 153.757 160.981 152.49C160.739 151.373 160.181 150.045 159.563 151.826C159.14 153.093 157.797 154.029 156.5 153.47C155.776 152.882 157.073 150.724 156.153 150.89C154.81 151.78 154.01 154.013 152.124 153.832C151.385 153.003 152.562 151.599 151.762 150.694C150.812 151.916 149.756 153.697 148.111 153.832C147.311 153.184 148.141 151.328 147.628 151.056C145.939 152.067 144.158 153.878 142.031 153.319C142.861 150.151 146.316 149.035 149.228 148.793C154.237 148.175 159.502 149.306 164.315 147.496C165.1 147.028 166.986 146.349 166.322 145.248C165.718 144.388 167.861 144.72 168.072 143.709C167.936 142.426 169.053 142.607 170.139 142.487C174.997 142.275 179.81 143.301 184.653 143.482C185.03 145.851 182.405 147.511 180.293 146.771C179.282 146.937 177.773 144.463 178.075 146.258C177.864 147.209 178.015 148.461 177.14 149.095ZM135.739 144.252C136.871 145.278 137.655 144.056 138.712 143.618C142.242 142.396 145.335 140.269 148.368 138.156C150.208 136.633 151.808 134.656 154.267 134.158C159.095 132.71 164.225 132.876 169.053 131.533C172.749 126.494 178.995 124.698 184.246 121.786C185.423 121.424 185.875 120.459 186.252 119.388C188.259 116.219 190.99 113.428 194.203 111.512C195.727 110.682 197.553 110.199 199.273 110.576C199.152 112.643 197.975 114.469 196.557 115.887C197.719 115.857 198.715 115.118 199.891 115.163C200.299 117.275 198.021 118.377 196.814 119.689C197.477 119.855 200.073 120.051 198.669 120.73C196.859 121.968 194.807 122.828 193.147 124.276C194.686 124.548 194.852 124.879 193.298 125.438C192.453 125.996 190.839 126.207 190.688 127.309C191.835 128.033 190.145 128.727 189.496 128.968C188.259 129.255 186.946 129.798 188.591 130.733C187.972 131.684 186.63 131.88 185.528 131.79C185.86 132.861 186.343 134.068 184.955 134.535C181.832 136.889 178.181 138.609 174.258 139.001C179.161 139.379 184.2 138.473 188.38 135.803C188.938 135.154 191.835 134.445 190.205 133.902C189.451 133.585 187.821 133.238 187.701 132.65C189.964 131.246 192.831 131.744 195.26 130.914C195.32 130.13 193.404 130.356 192.695 130.175C190.99 130.024 191.095 129.602 192.74 129.436C194.807 128.878 197.176 128.772 198.926 127.414C197.493 126.75 195.697 127.339 194.188 126.796C196.753 125.679 199.801 125.558 202.109 123.869C203.165 122.692 200.767 123.054 200.057 123.084C198.639 123.341 197.975 122.646 199.59 122.058C202.366 120.021 205.866 118.694 207.812 115.736C208.28 115.073 208.899 113.081 207.435 113.79C205.504 114.439 203.799 116.611 201.596 115.933C205.942 112.568 210.06 108.751 213.033 104.089C213.184 102.746 211.071 102.61 210.528 103.666C207.737 106.352 205.217 109.52 201.642 111.195C205.066 107.906 207.888 103.998 210.362 99.9549C210.89 98.7479 212.308 97.2995 211.539 95.9567C210.287 94.9307 208.733 95.8662 208.084 97.1033C205.926 99.9247 204.282 103.229 201.491 105.537C203.935 100.875 206.455 95.9265 206.515 90.5554C206.515 89.454 206.289 87.8245 204.795 88.0357C203.603 88.247 203.875 90.0273 203.392 90.9325C202.305 94.5988 201.808 98.5668 199.59 101.78C200.088 98.7931 200.963 95.6851 200.284 92.6827C199.982 91.3399 197.809 91.9132 198.081 93.2409C195.486 106.397 186.675 117.894 175.133 124.532C169.852 127.52 163.953 129.451 157.948 130.326C156.334 130.673 154.584 130.477 153.045 131.02C149.303 133.887 147.04 138.685 142.302 140.193C140.19 141.249 137.414 141.461 135.905 143.437C135.77 143.678 135.739 143.98 135.739 144.252Z" fill="#FEC50C"/>
<path fill-rule="evenodd" clip-rule="evenodd" d="M149.921 130.914C149.212 132.182 148.805 133.645 147.915 134.777C145.214 132.317 141.291 132.408 137.867 132.242C135.03 132.091 131.952 131.82 129.765 129.813C127.456 127.927 125.585 125.468 123.005 123.944C120.667 123.31 118.298 122.511 116.397 120.896C112.369 117.607 110.06 112.719 106.107 109.324C105.368 108.585 104.478 108.011 103.633 107.393C102.833 107.589 103.195 109.309 102.215 108.434C101.687 108.057 100.344 108.011 100.223 108.54C101.43 110.139 102.637 111.949 102.803 113.986C101.988 114.062 100.525 113.805 100.118 114.107C101.204 115.751 102.607 117.2 104.191 118.361C103.437 118.482 101.928 118.407 101.641 118.724C103.226 120.006 104.915 121.319 106.982 121.651C107.405 122.209 106.364 123.28 107.239 123.763C107.737 123.974 109.427 124.321 108.265 124.894C107.48 125.422 107.767 126.675 108.778 126.645C109.427 126.976 110.86 127.052 110.966 127.625C110.407 128.199 108.642 128.877 110.136 129.421C111.539 130.205 113.153 130.703 114.752 130.763C113.953 131.442 112.957 131.82 112.127 132.468C115.824 134.641 119.927 136.059 123.986 137.432C125.6 137.975 127.245 138.473 128.905 138.79C124.046 138.518 119.354 137.07 114.918 135.109C112.625 134.098 110.317 133.117 107.963 132.257C108.989 131.714 110.181 131.593 111.252 131.126C109.034 130.673 106.605 130.537 104.659 129.315C104.946 128.772 106.092 128.757 106.711 128.485C107.888 128.199 108.627 127.852 106.967 127.761C105.278 127.293 103.361 127.505 101.883 126.494C101.973 125.89 103.527 126.101 104.161 125.83C104.946 125.694 105.836 125.588 106.469 125.045C103.874 123.974 100.48 124.728 98.4429 122.45C97.9752 121.575 99.9064 122.269 100.45 122.133C101.838 122.133 103.331 122.571 104.659 122.013C100.887 120.353 96.8285 118.799 93.9468 115.736C93.63 115.238 92.6794 113.896 93.4489 113.73C95.6969 114.016 97.3113 116.46 99.7102 116.083C100.027 115.661 98.3222 114.952 97.8997 114.333C94.3994 111.331 91.0047 108.072 88.5455 104.149C88.3795 102.836 90.4465 102.64 90.9896 103.651C93.6601 106.231 96.0741 109.234 99.4085 110.999C100.585 111.572 98.7295 110.32 98.4881 109.867C95.4103 106.291 92.4682 102.505 90.3258 98.2951C89.9335 97.5407 89.2998 96.1678 90.4465 95.7604C91.6082 95.1871 92.7398 95.9716 93.3282 96.9674C95.5913 99.8189 97.266 103.214 100.072 105.582C97.6734 100.92 95.1085 96.0169 95.0482 90.6608C95.1085 89.6198 95.1689 88.0356 96.5871 88.0809C97.7639 87.8998 97.5829 89.4236 97.9752 90.1478C99.1369 94.0857 99.6499 98.3555 101.988 101.826C101.46 98.8986 100.706 95.8962 101.219 92.9239C101.325 91.9433 102.426 91.6566 103.15 92.245C103.723 93.6632 103.844 95.4134 104.372 96.9221C107.375 107.212 114.134 116.249 122.93 122.329C130.172 127.293 138.757 130.266 147.538 130.779C148.322 130.839 149.122 130.869 149.921 130.914Z" fill="#FEC50C"/>
<path fill-rule="evenodd" clip-rule="evenodd" d="M139.255 144.086C139.255 144.161 139.225 144.237 139.194 144.312C139.149 144.388 139.089 144.448 139.013 144.493C138.938 144.523 138.862 144.554 138.787 144.554C138.696 144.554 138.621 144.523 138.546 144.493C138.47 144.448 138.41 144.388 138.365 144.312C138.334 144.237 138.304 144.161 138.304 144.086C138.304 143.995 138.334 143.92 138.365 143.844C138.41 143.769 138.47 143.709 138.546 143.663C138.621 143.633 138.696 143.603 138.787 143.603C138.862 143.603 138.938 143.633 139.013 143.663C139.089 143.709 139.149 143.769 139.194 143.844C139.225 143.92 139.255 143.995 139.255 144.086Z" fill="#FEC50C"/>
<path fill-rule="evenodd" clip-rule="evenodd" d="M138.938 143.995C138.938 144.04 138.923 144.07 138.908 144.101C138.893 144.131 138.862 144.146 138.832 144.176C138.802 144.191 138.772 144.191 138.742 144.191C138.712 144.191 138.666 144.191 138.651 144.176C138.621 144.146 138.591 144.131 138.576 144.101C138.561 144.07 138.546 144.04 138.546 143.995C138.546 143.965 138.561 143.935 138.576 143.904C138.591 143.874 138.621 143.859 138.651 143.829C138.666 143.814 138.712 143.814 138.742 143.814C138.772 143.814 138.802 143.814 138.832 143.829C138.862 143.859 138.893 143.874 138.908 143.904C138.923 143.935 138.938 143.965 138.938 143.995Z" fill="#FEC50C"/>
<path fill-rule="evenodd" clip-rule="evenodd" d="M138.938 143.995C138.938 144.04 138.923 144.07 138.908 144.101C138.893 144.131 138.862 144.146 138.832 144.176C138.802 144.191 138.772 144.191 138.742 144.191C138.712 144.191 138.666 144.191 138.651 144.176C138.621 144.146 138.591 144.131 138.576 144.101C138.561 144.07 138.546 144.04 138.546 143.995C138.546 143.965 138.561 143.935 138.576 143.904C138.591 143.874 138.621 143.859 138.651 143.829C138.666 143.814 138.712 143.814 138.742 143.814C138.772 143.814 138.802 143.814 138.832 143.829C138.862 143.859 138.893 143.874 138.908 143.904C138.923 143.935 138.938 143.965 138.938 143.995Z" stroke="#00AFCA" stroke-width="0.05"/>
</g>
<defs>
<clipPath id="clip0_101_2">
<rect width="300" height="200" fill="white"/>
</clipPath>
</defs>
</svg>
