<svg width="512" height="342" viewBox="0 0 512 342" fill="none" xmlns="http://www.w3.org/2000/svg">
<g clip-path="url(#clip0)">
<path d="M8.828 341.724H503.173C508.048 341.724 512.001 337.701 512.001 332.739V9.27067C512.001 4.30862 508.048 0.285034 503.173 0.285034H8.828C3.953 0.286052 0 4.30862 0 9.27067V332.739C0 337.702 3.953 341.724 8.828 341.724Z" fill="#C8414B"/>
<path d="M512 72.1671H0V269.845H512V72.1671Z" fill="#FFD250"/>
<path d="M216.276 171.001L223.761 136.719C224.451 133.561 222.09 130.567 218.912 130.567H213.64C210.463 130.567 208.103 133.561 208.791 136.719L216.276 171.001Z" fill="#C8414B"/>
<path d="M225.105 153.026H207.45V229.395H225.105V153.026Z" fill="#F5F5F5"/>
<path d="M229.513 144.048H203.03V153.034H229.513V144.048Z" fill="#FAB446"/>
<path d="M229.52 171.001H185.38V179.987H229.52V171.001Z" fill="#C8414B"/>
<path d="M229.517 206.942L203.034 197.957V188.971L229.517 197.957V206.942Z" fill="#C8414B"/>
<path d="M83.8622 171.001L91.3472 136.719C92.0372 133.561 89.6762 130.567 86.4982 130.567H81.2262C78.0492 130.567 75.6892 133.561 76.3772 136.719L83.8622 171.001Z" fill="#C8414B"/>
<path d="M114.759 144.045C109.884 144.045 105.931 148.069 105.931 153.031V211.434C105.931 222.351 115.941 242.883 150.069 242.883C184.197 242.883 194.207 222.352 194.207 211.434V153.031C194.207 148.069 190.254 144.045 185.379 144.045H114.759V144.045Z" fill="#F5F5F5"/>
<path d="M150.069 188.971H105.931V153.031C105.931 148.069 109.884 144.045 114.759 144.045H150.069V188.971Z" fill="#C8414B"/>
<path d="M150.069 188.971H194.207V211.434C194.207 223.841 184.327 233.897 172.138 233.897C159.949 233.897 150.069 223.841 150.069 211.434V188.971V188.971Z" fill="#C8414B"/>
<path d="M105.931 188.971H150.069V211.434C150.069 223.841 140.189 233.897 128 233.897C115.811 233.897 105.931 223.841 105.931 211.434V188.971V188.971Z" fill="#FAB446"/>
<path d="M141.241 229.304V188.971H132.413V233.445C135.697 232.767 138.664 231.287 141.241 229.304Z" fill="#C8414B"/>
<path d="M123.586 233.445V188.971H114.758V229.304C117.336 231.287 120.303 232.767 123.586 233.445Z" fill="#C8414B"/>
<path d="M141.243 171.001H114.76V179.987H141.243V171.001Z" fill="#FFB441"/>
<path d="M141.243 153.026H114.76V162.011H141.243V153.026Z" fill="#FAB446"/>
<path d="M136.825 158.369H119.17V174.647H136.825V158.369Z" fill="#FAB446"/>
<path d="M92.6848 153.026H75.0298V229.395H92.6848V153.026Z" fill="#F5F5F5"/>
<path d="M97.1031 224.917H70.6201V233.903H97.1031V224.917Z" fill="#FAB446"/>
<path d="M97.1031 144.048H70.6201V153.034H97.1031V144.048Z" fill="#FAB446"/>
<path d="M101.52 233.894H66.21V242.88H101.52V233.894Z" fill="#5064AA"/>
<path d="M233.933 224.917H207.45V233.903H233.933V224.917Z" fill="#FAB446"/>
<path d="M233.93 233.894H198.62V242.88H233.93V233.894Z" fill="#5064AA"/>
<path d="M176.556 135.06H123.59V144.046H176.556V135.06Z" fill="#FAB446"/>
<path d="M154.488 108.108H145.66V135.064H154.488V108.108Z" fill="#FFB441"/>
<path d="M141.241 121.582C133.939 121.582 128 115.536 128 108.105C128 100.672 133.94 94.6271 141.241 94.6271C148.543 94.6271 154.482 100.673 154.482 108.105C154.483 115.536 148.543 121.582 141.241 121.582ZM141.241 103.612C138.806 103.612 136.827 105.625 136.827 108.105C136.827 110.583 138.805 112.597 141.241 112.597C143.677 112.597 145.655 110.584 145.655 108.105C145.655 105.626 143.677 103.612 141.241 103.612Z" fill="#F5F5F5"/>
<path d="M158.897 121.582C151.595 121.582 145.656 115.536 145.656 108.105C145.656 100.672 151.596 94.6271 158.897 94.6271C166.199 94.6271 172.138 100.673 172.138 108.105C172.138 115.536 166.198 121.582 158.897 121.582ZM158.897 103.612C156.462 103.612 154.483 105.625 154.483 108.105C154.483 110.583 156.461 112.597 158.897 112.597C161.332 112.597 163.311 110.584 163.311 108.105C163.31 105.626 161.332 103.612 158.897 103.612Z" fill="#F5F5F5"/>
<path d="M176.552 130.568C169.25 130.568 163.311 124.522 163.311 117.09C163.311 109.658 169.251 103.613 176.552 103.613C183.854 103.613 189.793 109.659 189.793 117.09C189.793 124.522 183.853 130.568 176.552 130.568ZM176.552 112.597C174.117 112.597 172.138 114.611 172.138 117.09C172.138 119.569 174.116 121.583 176.552 121.583C178.987 121.583 180.966 119.57 180.966 117.09C180.966 114.611 178.987 112.597 176.552 112.597Z" fill="#F5F5F5"/>
<path d="M123.586 130.568C116.284 130.568 110.345 124.522 110.345 117.09C110.345 109.658 116.285 103.613 123.586 103.613C130.888 103.613 136.827 109.659 136.827 117.09C136.828 124.522 130.888 130.568 123.586 130.568ZM123.586 112.597C121.151 112.597 119.172 114.611 119.172 117.09C119.172 119.569 121.15 121.583 123.586 121.583C126.022 121.583 128 119.569 128 117.089C128 114.611 126.022 112.597 123.586 112.597Z" fill="#F5F5F5"/>
<path d="M176.552 206.942V211.434C176.552 213.912 174.572 215.927 172.138 215.927C169.704 215.927 167.724 213.912 167.724 211.434V206.942H176.552ZM185.379 197.957H158.896V211.434C158.896 218.867 164.836 224.912 172.137 224.912C179.439 224.912 185.378 218.866 185.378 211.434V197.957H185.379Z" fill="#FAB446"/>
<path d="M172.138 179.987C167.263 179.987 163.31 175.963 163.31 171.001V162.015C163.31 157.053 167.263 153.03 172.138 153.03C177.013 153.03 180.966 157.053 180.966 162.015V171.001C180.966 175.963 177.013 179.987 172.138 179.987Z" fill="#FFA0D2"/>
<path d="M150.07 202.444C157.383 202.444 163.311 196.41 163.311 188.966C163.311 181.523 157.383 175.489 150.07 175.489C142.757 175.489 136.829 181.523 136.829 188.966C136.829 196.41 142.757 202.444 150.07 202.444Z" fill="#5064AA"/>
<path d="M154.488 90.1323H145.66V117.088H154.488V90.1323Z" fill="#FAB446"/>
<path d="M123.586 135.06L114.758 126.075L119.929 120.812C127.922 112.676 138.764 108.105 150.069 108.105C161.374 108.105 172.215 112.676 180.209 120.812L185.38 126.075L176.552 135.06H123.586Z" fill="#C8414B"/>
<path d="M150.07 130.566C152.508 130.566 154.484 128.554 154.484 126.073C154.484 123.591 152.508 121.58 150.07 121.58C147.632 121.58 145.656 123.591 145.656 126.073C145.656 128.554 147.632 130.566 150.07 130.566Z" fill="#FFD250"/>
<path d="M132.41 130.566C134.848 130.566 136.824 128.554 136.824 126.073C136.824 123.591 134.848 121.58 132.41 121.58C129.972 121.58 127.996 123.591 127.996 126.073C127.996 128.554 129.972 130.566 132.41 130.566Z" fill="#FFD250"/>
<path d="M167.72 130.566C170.158 130.566 172.134 128.554 172.134 126.073C172.134 123.591 170.158 121.58 167.72 121.58C165.282 121.58 163.306 123.591 163.306 126.073C163.306 128.554 165.282 130.566 167.72 130.566Z" fill="#FFD250"/>
<path d="M114.76 171.001H70.6201V179.987H114.76V171.001Z" fill="#C8414B"/>
<path d="M70.6211 206.942L97.1031 197.957V188.971L70.6211 197.957V206.942Z" fill="#C8414B"/>
</g>
<defs>
<clipPath id="clip0">
<rect width="512" height="342" fill="white"/>
</clipPath>
</defs>
</svg>
